<?xml version="1.0" encoding="UTF-8"?>
<svg version="1.1" xmlns="http://www.w3.org/2000/svg" width="500" height="500">
<path d="M0 0 C165 0 330 0 500 0 C500 165 500 330 500 500 C335 500 170 500 0 500 C0 335 0 170 0 0 Z " fill="#FEFEFE" transform="translate(0,0)"/>
<path d="M0 0 C3.52605201 0.08256582 7.05150341 0.05425104 10.578251 0.03985679 C16.67857055 0.02992397 22.77501036 0.08918774 28.87435353 0.19637573 C37.69211244 0.3512349 46.50800804 0.40031464 55.32697926 0.42414757 C69.63625029 0.46566535 83.94345578 0.59191915 98.25160611 0.7718972 C112.14505612 0.9464764 126.03794381 1.08087582 139.93227017 1.16154563 C140.78963494 1.16653738 141.64699971 1.17152913 142.53034522 1.17667214 C146.83177724 1.20146904 151.13321322 1.2254792 155.43465185 1.2490983 C191.08287237 1.44585856 226.72869374 1.78031838 262.37489712 2.20524681 C296.12489714 60.70524683 296.12489714 60.70524683 298.00087368 63.95695579 C299.24759968 66.11793669 300.49434439 68.27890679 301.74110806 70.43986595 C304.91635595 75.94343532 308.09125207 81.44720713 311.26552212 86.95134056 C311.90626675 88.0616262 312.54701138 89.17191185 313.20717251 90.31584251 C314.4717381 92.5096344 315.73399913 94.70475654 316.99379361 96.90129173 C319.88341886 101.93240796 322.80277655 106.93636299 325.83192837 111.88493431 C326.62228482 113.19313133 326.62228482 113.19313133 327.42860806 114.52775657 C328.40498354 116.1390921 329.39567411 117.74187635 330.40321743 119.33390892 C333.50467427 124.48869948 333.50467427 124.48869948 332.91786587 127.72868431 C332.40868618 128.54594993 331.8995065 129.36321556 331.37489712 130.20524681 C330.74090355 131.39725166 330.11111592 132.59149786 329.48427212 133.78727806 C328.70170282 135.19959624 327.91494481 136.60959837 327.12489712 138.01774681 C326.6894357 138.79762962 326.25397427 139.57751243 325.80531704 140.38102806 C321.00244297 148.93878523 316.03695724 157.40142398 311.07802212 165.86930931 C307.33855123 172.25806672 303.63364678 178.66640757 299.93739712 185.08024681 C299.31518277 186.15983665 298.69296841 187.23942649 298.05189908 188.35173118 C296.78978195 190.54207201 295.52781927 192.73250183 294.2660104 194.92302024 C291.1380954 200.35184665 288.00626583 205.77841177 284.87489712 211.20524681 C282.39989712 215.49524681 279.92489712 219.78524681 277.37489712 224.20524681 C272.42489712 232.78524681 267.47489712 241.36524681 262.37489712 250.20524681 C167.33489712 250.20524681 72.29489712 250.20524681 -25.62510288 250.20524681 C-33.12510288 237.20524681 -40.62510288 224.20524681 -48.12510288 211.20524681 C-49.97941928 207.99161399 -49.97941928 207.99161399 -51.87119663 204.71305931 C-54.38579723 200.35459292 -56.89864949 195.9951249 -59.41025913 191.63493431 C-64.9344129 182.04770732 -70.46370309 172.4639932 -76.04868686 162.91203392 C-77.2120309 160.92074316 -78.37305464 158.92809478 -79.53159702 156.93400657 C-82.39642695 152.00340331 -85.28934968 147.0938349 -88.23838413 142.21305931 C-89.36743855 140.31470992 -90.49635092 138.41627604 -91.62510288 136.51774681 C-92.16030551 135.65044944 -92.69550815 134.78315208 -93.24692905 133.88957298 C-93.96006259 132.67878074 -93.96006259 132.67878074 -94.68760288 131.44352806 C-95.11170444 130.74268089 -95.535806 130.04183372 -95.97275913 129.31974876 C-97.11869386 125.60532483 -95.03887739 123.00123808 -93.33506382 119.72355735 C-92.84812046 118.85513206 -92.3611771 117.98670677 -91.85947788 117.09196556 C-91.30655063 116.10397972 -90.75362339 115.11599388 -90.18394077 114.09806907 C-89.58702426 113.04031272 -88.99010776 111.98255638 -88.37510288 110.89274681 C-87.75176059 109.78407249 -87.12841831 108.67539817 -86.48618686 107.53312767 C-81.14636983 98.06583804 -75.68387263 88.67224716 -70.18760288 79.29509056 C-66.49296971 72.98954251 -62.83658816 66.66229557 -59.18760288 60.33024681 C-58.56796665 59.25516868 -57.94833042 58.18009056 -57.30991733 57.07243431 C-56.05104305 54.88779722 -54.79233611 52.70306371 -53.53379428 50.51823509 C-50.31631615 44.9335359 -47.09569145 39.35065263 -43.87510288 33.76774681 C-43.30992954 32.78757591 -42.7447562 31.80740501 -42.16245639 30.79753196 C-41.02859643 28.83169963 -39.86878902 26.88059352 -38.68289268 24.9457072 C-37.07818221 22.20203801 -35.92849958 19.4534157 -34.8183583 16.47747409 C-27.77730663 -0.67719998 -17.12912604 -0.50345563 0 0 Z M-23.62510288 5.20524681 C-30.55510288 17.58024681 -30.55510288 17.58024681 -37.62510288 30.20524681 C-45.26641528 43.35381139 -45.26641528 43.35381139 -48.06260288 48.11540306 C-51.75723604 54.4209511 -55.41361759 60.74819804 -59.06260288 67.08024681 C-59.99205722 68.69286399 -59.99205722 68.69286399 -60.94028842 70.33805931 C-62.1991627 72.52269639 -63.45786964 74.70742991 -64.71641147 76.89225852 C-67.29568357 81.36919922 -69.876624 85.84517401 -72.45957553 90.3199929 C-73.72368288 92.51276642 -74.98513411 94.70707358 -76.24375522 96.90300071 C-79.12731764 101.92635258 -82.04291186 106.91878609 -85.08213413 111.84977806 C-85.60903842 112.71739769 -86.13594272 113.58501731 -86.67881382 114.47892845 C-87.65336914 116.0784292 -88.64390465 117.66835133 -89.65342319 119.24601829 C-92.16479621 123.35697525 -92.16479621 123.35697525 -92.28916538 128.04899681 C-89.80166679 132.76706924 -87.17025679 137.37496097 -84.43760288 141.95524681 C-83.1609051 144.11892229 -81.88488617 146.28299846 -80.60947788 148.44743431 C-79.95012241 149.56344017 -79.29076694 150.67944602 -78.611431 151.82927024 C-75.43584932 157.2265101 -72.31133728 162.65288681 -69.18760288 168.08024681 C-67.9285194 170.26516056 -66.66940465 172.4500563 -65.41025913 174.63493431 C-64.78522495 175.72000267 -64.16019077 176.80507102 -63.51621616 177.92302024 C-60.38830138 183.35184625 -57.25649521 188.77842622 -54.12510288 194.20524681 C-52.88420814 196.35628309 -51.64332274 198.50732477 -50.40244663 200.65837181 C-48.14687691 204.56810445 -45.89078184 208.47753287 -43.63392246 212.38652122 C-42.63218894 214.12161408 -41.63058099 215.85677937 -40.62900913 217.59196556 C-39.38576569 219.74575349 -38.14229715 221.89941152 -36.89854038 224.05290306 C-32.45150194 231.75777189 -28.03894348 239.48102575 -23.62510288 247.20524681 C70.09489712 247.20524681 163.81489712 247.20524681 260.37489712 247.20524681 C265.32489712 238.29524681 265.32489712 238.29524681 270.37489712 229.20524681 C272.58972969 225.36193334 274.81218648 221.52739966 277.06239712 217.70524681 C278.26606075 215.65087479 279.46916605 213.59617558 280.67177212 211.54118431 C281.58539517 209.98029075 281.58539517 209.98029075 282.51747525 208.38786399 C285.63486905 203.04633591 288.72432254 197.68876307 291.81239712 192.33024681 C292.43461148 191.25065696 293.05682583 190.17106712 293.69789517 189.05876243 C294.96001229 186.86842161 296.22197497 184.67799178 297.48378384 182.48747337 C299.98917844 178.13909679 302.49678505 173.79200128 305.00624478 169.44596946 C306.24434369 167.29878826 307.47973155 165.15004138 308.71229947 162.9996804 C311.63456054 157.90871671 314.5816561 152.83772612 317.62395108 147.81767356 C319.06103319 145.44274957 320.48315829 143.05903613 321.904194 140.67448509 C322.91509728 138.99235349 323.9475194 137.32321369 324.98036587 135.65446556 C325.58622525 134.63481712 326.19208462 133.61516868 326.81630337 132.56462181 C327.35972378 131.67226829 327.90314419 130.77991477 328.46303189 129.86052024 C329.69838619 126.26327435 328.90731312 124.62886097 327.37489712 121.20524681 C326.51522077 119.53761634 325.60301636 117.89617801 324.64442837 116.28337181 C324.09673794 115.35428001 323.54904751 114.42518821 322.9847604 113.46794212 C322.09506558 111.97665794 322.09506558 111.97665794 321.18739712 110.45524681 C319.90942247 108.28895221 318.63210039 106.12227252 317.35536587 103.95524681 C316.69584927 102.83891868 316.03633267 101.72259056 315.35683072 100.57243431 C312.20557207 95.21863297 309.10109152 89.83815752 305.99989712 84.45524681 C305.38163052 83.3832302 304.76336392 82.3112136 304.12636197 81.20671165 C299.16154961 72.5902114 294.23202343 63.95379439 289.30586636 55.31517112 C284.00682042 46.02563298 278.65057101 36.77073702 273.24184048 27.54460227 C268.89670614 20.12810353 264.64050281 12.67005676 260.37489712 5.20524681 C166.65489712 5.20524681 72.93489712 5.20524681 -23.62510288 5.20524681 Z " fill="#242121" transform="translate(131.62510287761688,123.79475319385529)"/>
<path d="M0 0 C69.63 0 139.26 0 211 0 C244.75 58.5 244.75 58.5 246.62597656 61.75170898 C247.87270256 63.91268988 249.11944727 66.07365998 250.36621094 68.23461914 C253.54145883 73.73818851 256.71635495 79.24196032 259.890625 84.74609375 C260.53136963 85.85637939 261.17211426 86.96666504 261.83227539 88.1105957 C263.09684098 90.30438759 264.35910201 92.49950973 265.61889648 94.69604492 C268.50852173 99.72716115 271.42787942 104.73111618 274.45703125 109.6796875 C275.2473877 110.98788452 275.2473877 110.98788452 276.05371094 112.32250977 C277.03008642 113.93384529 278.02077699 115.53662954 279.02832031 117.12866211 C282.12977715 122.28345267 282.12977715 122.28345267 281.54296875 125.5234375 C281.03378906 126.34070313 280.52460938 127.15796875 280 128 C279.36600642 129.19200485 278.7362188 130.38625106 278.109375 131.58203125 C277.3268057 132.99434943 276.54004769 134.40435157 275.75 135.8125 C275.31453857 136.59238281 274.87907715 137.37226563 274.43041992 138.17578125 C269.62754585 146.73353842 264.66206012 155.19617718 259.703125 163.6640625 C255.96365411 170.05281992 252.25874966 176.46116076 248.5625 182.875 C247.94028564 183.95458984 247.31807129 185.03417969 246.67700195 186.14648438 C245.41488483 188.3368252 244.15292215 190.52725502 242.89111328 192.71777344 C239.76319828 198.14659984 236.63136871 203.57316496 233.5 209 C229.7875 215.435 229.7875 215.435 226 222 C221.05 230.58 216.1 239.16 211 248 C185.92 248 160.84 248 135 248 C135 247.34 135 246.68 135 246 C159.09 245.67 183.18 245.34 208 245 C211.3 239.06 214.6 233.12 218 227 C220.21483257 223.15668654 222.43728936 219.32215286 224.6875 215.5 C225.89116363 213.44562799 227.09426893 211.39092877 228.296875 209.3359375 C228.90595703 208.2953418 229.51503906 207.25474609 230.14257812 206.18261719 C233.25997193 200.8410891 236.34942542 195.48351626 239.4375 190.125 C240.05971436 189.04541016 240.68192871 187.96582031 241.32299805 186.85351562 C242.58511517 184.6631748 243.84707785 182.47274498 245.10888672 180.28222656 C247.61428132 175.93384998 250.12188793 171.58675448 252.63134766 167.24072266 C253.86944656 165.09354146 255.10483443 162.94479457 256.33740234 160.79443359 C259.25966342 155.7034699 262.20675897 150.63247932 265.24905396 145.61242676 C266.68613607 143.23750276 268.10826117 140.85378932 269.52929688 138.46923828 C270.54020016 136.78710668 271.57262227 135.11796688 272.60546875 133.44921875 C273.21132813 132.42957031 273.8171875 131.40992188 274.44140625 130.359375 C274.98482666 129.46702148 275.52824707 128.57466797 276.08813477 127.65527344 C277.32348907 124.05802755 276.532416 122.42361417 275 119 C274.14032365 117.33236954 273.22811924 115.69093121 272.26953125 114.078125 C271.72184082 113.1490332 271.17415039 112.21994141 270.60986328 111.26269531 C269.72016846 109.77141113 269.72016846 109.77141113 268.8125 108.25 C267.53452535 106.0837054 266.25720327 103.91702572 264.98046875 101.75 C264.32095215 100.63367188 263.66143555 99.51734375 262.98193359 98.3671875 C259.83067495 93.01338616 256.7261944 87.63291071 253.625 82.25 C253.0067334 81.1779834 252.3884668 80.1059668 251.75146484 79.00146484 C246.78665249 70.38496459 241.85712631 61.74854758 236.93096924 53.10992432 C231.6319233 43.82038617 226.27567388 34.56549021 220.86694336 25.33935547 C220.34366455 24.44619629 219.82038574 23.55303711 219.28125 22.6328125 C218.51150219 21.37916114 218.51150219 21.37916114 217.72620392 20.10018349 C216 17 216 17 214.63275909 13.44652367 C213.01892297 9.46731356 211.2824037 5.86090948 208 3 C201.81667478 0.38634227 194.56320349 1.17417688 187.99804688 1.31884766 C185.94760574 1.31293053 183.89717453 1.30085445 181.84680176 1.28309631 C176.2922998 1.25239129 170.74160715 1.30768024 165.18759727 1.37855577 C159.37931566 1.43800868 153.57131436 1.41819483 147.76281738 1.40682983 C136.76930446 1.39734324 125.77739159 1.45902509 114.7842679 1.54635084 C102.26679704 1.64231502 89.74961454 1.65883137 77.23182583 1.6687119 C51.48723242 1.69081062 25.74388302 1.81255873 0 2 C0 1.34 0 0.68 0 0 Z " fill="#110F0F" transform="translate(183,126)"/>
</svg>
