<?xml version="1.0" encoding="UTF-8"?>
<svg version="1.1" xmlns="http://www.w3.org/2000/svg" width="500" height="500">
<path d="M0 0 C165 0 330 0 500 0 C500 165 500 330 500 500 C335 500 170 500 0 500 C0 335 0 170 0 0 Z " fill="#FEFEFE" transform="translate(0,0)"/>
<path d="M0 0 C1.46824206 -0.00551503 1.46824206 -0.00551503 2.96614558 -0.01114148 C6.23757269 -0.02213155 9.50896799 -0.02601422 12.78041077 -0.02983093 C15.12983805 -0.03609919 17.47926435 -0.04274631 19.82868958 -0.04974365 C27.53793147 -0.07074603 35.24717346 -0.08114353 42.95643616 -0.09111023 C45.61548434 -0.09515943 48.27453242 -0.0992764 50.9335804 -0.10346031 C61.99905408 -0.12046659 73.06452682 -0.13495796 84.13001156 -0.14220905 C86.99736469 -0.14411865 89.86471782 -0.14603902 92.73207092 -0.147995 C93.44465361 -0.14847874 94.15723629 -0.14896248 94.89141238 -0.14946087 C106.41972461 -0.15775089 117.94793273 -0.18307304 129.47619956 -0.21557567 C141.33711064 -0.24874097 153.19796898 -0.26666634 165.05892664 -0.26985329 C171.70822371 -0.27200968 178.35738906 -0.2810801 185.00665092 -0.30631447 C191.26857221 -0.32969534 197.53022157 -0.33378814 203.79217529 -0.32355309 C206.08013886 -0.32306003 208.36811627 -0.32931193 210.65603828 -0.34310913 C227.375703 -0.43822847 241.64160753 1.44322728 257.24159241 7.83467102 C258.08214172 8.17715881 258.92269104 8.51964661 259.78871155 8.87251282 C288.74007151 21.08684266 309.4101701 45.4655278 321.33143616 74.06123352 C331.61584452 102.23663152 329.49410963 134.37243603 317.22596741 161.40107727 C306.33818516 184.45803541 288.68272357 202.43403343 266.11659241 214.14717102 C265.09049866 214.69244446 264.06440491 215.2377179 263.00721741 215.79951477 C249.29438514 222.63852883 233.81087826 226.30742737 218.52307129 226.28088379 C217.08356246 226.28428212 217.08356246 226.28428212 215.61497265 226.28774911 C212.40252829 226.29407395 209.19012629 226.29326071 205.97767639 226.29243469 C203.67278997 226.29542721 201.36790406 226.29882995 199.0630188 226.3026123 C192.80236763 226.31144905 186.54173013 226.31379034 180.28107333 226.31442809 C176.36690615 226.315139 172.45274244 226.31727415 168.53857613 226.31992531 C155.58021964 226.32870144 142.62187285 226.33334515 129.66351353 226.33259483 C128.9653904 226.33255488 128.26726727 226.33251492 127.54798889 226.33247375 C126.84900685 226.33243287 126.15002481 226.33239199 125.42986149 226.33234987 C114.11612313 226.33194391 102.80241813 226.34150121 91.48868942 226.35561212 C79.85495613 226.37000685 68.22124061 226.3766978 56.58749825 226.37601835 C50.0629601 226.37576385 43.53845968 226.37858826 37.01392937 226.3891964 C30.87192017 226.3989096 24.7299845 226.39893447 18.58797264 226.39167976 C16.34068443 226.39063779 14.09339156 226.39297368 11.8461113 226.39904022 C-21.23836759 226.48252567 -49.50506288 217.76325175 -73.78184509 194.27607727 C-90.94795392 177.18929427 -102.26900071 156.11346895 -105.88340759 132.14717102 C-106.06774353 131.11076477 -106.25207947 130.07435852 -106.44200134 129.00654602 C-109.93967586 98.42510868 -103.66397031 69.33212196 -84.94200134 44.69795227 C-63.94815388 18.68470295 -34.21528702 -0.00695931 0 0 Z " fill="#FEFEFE" transform="translate(139.88340759277344,136.8528289794922)"/>
<path d="M0 0 C2.30179168 -0.00379205 4.60358106 -0.00929933 6.90536499 -0.01637268 C13.10362163 -0.03022737 19.30159757 -0.01922878 25.49983835 -0.00266147 C32.01591567 0.01128567 38.53197829 0.00471815 45.04806519 0.00120544 C55.98391016 -0.00221611 66.9196509 0.01182225 77.85546875 0.03515625 C89.06970304 0.05908106 100.28379163 0.06615309 111.49804688 0.05566406 C125.07016274 0.0429921 138.64217681 0.04558403 152.21429062 0.06132317 C157.37575736 0.06705328 162.53717533 0.06702387 167.69864273 0.06225777 C173.78424225 0.05745573 179.86964235 0.06772239 185.95520401 0.08921242 C188.17704598 0.09473623 190.39890728 0.09528658 192.62075043 0.09025955 C208.05903458 0.05973171 222.6193062 1.01898291 237.35888672 6.06420898 C238.09260498 6.31396484 238.82632324 6.5637207 239.58227539 6.82104492 C271.60064682 18.26948409 295.94535639 41.84136755 310.53710938 72.26928711 C324.03567881 102.12679047 323.79431062 135.56511404 312.58129883 166.05957031 C307.46315339 179.37643471 299.90526085 190.77366624 290.54638672 201.50170898 C289.97404297 202.20682617 289.40169922 202.91194336 288.81201172 203.63842773 C271.8424938 224.2038673 242.12966064 239.49000289 215.64285278 242.03559875 C206.05081736 242.80002571 196.43099822 242.64960668 186.81542969 242.64697266 C184.62614383 242.64996898 182.4368585 242.65337259 180.24757385 242.65715027 C174.32784033 242.66594697 168.40812129 242.66832657 162.48838186 242.66896605 C158.78152029 242.66967909 155.07466234 242.67181822 151.36780167 242.67446327 C139.07893562 242.683227 126.79007834 242.68788476 114.50120912 242.6871328 C113.51036891 242.68707286 113.51036891 242.68707286 112.49951172 242.68701172 C111.838131 242.68697084 111.17675028 242.68692996 110.49532773 242.68688784 C99.125634 242.68645666 87.75598328 242.69783256 76.38629997 242.71275538 C66.01898136 242.72587305 55.65167735 242.73119384 45.28435051 242.73055631 C39.10682667 242.73030254 32.92934275 242.7330866 26.75182724 242.74373436 C20.93556969 242.75348658 15.11938964 242.75344616 9.3031292 242.74621773 C7.18210295 242.74518064 5.06107168 242.74748195 2.94005394 242.75357819 C-6.86211209 242.77990158 -16.57883808 242.68125374 -26.33297729 241.63105774 C-27.03456534 241.55614489 -27.73615338 241.48123204 -28.45900166 241.4040491 C-40.03864712 239.98805963 -51.09214194 235.73492678 -61.45361328 230.50170898 C-62.47841797 230.00026367 -63.50322266 229.49881836 -64.55908203 228.98217773 C-83.66814405 219.23358815 -100.36708539 203.8917878 -111.45361328 185.50170898 C-111.79440918 184.94080566 -112.13520508 184.37990234 -112.48632812 183.80200195 C-126.85592498 159.77183224 -134.56009147 127.95092846 -128.13720703 100.17749023 C-127.79882812 98.85297852 -127.79882812 98.85297852 -127.45361328 97.50170898 C-127.19708984 96.29901367 -126.94056641 95.09631836 -126.67626953 93.85717773 C-122.25695341 73.73214016 -112.62762516 57.21142669 -99.45361328 41.50170898 C-99.01533203 40.9409668 -98.57705078 40.38022461 -98.12548828 39.80249023 C-94.69836755 35.4500469 -90.7410331 31.97152782 -86.45361328 28.50170898 C-85.71570557 27.89601074 -85.71570557 27.89601074 -84.96289062 27.27807617 C-60.08956924 7.11294593 -31.4347763 -0.14921966 0 0 Z M-49.45361328 15.12670898 C-50.29609619 15.4737085 -51.1385791 15.82070801 -52.0065918 16.17822266 C-65.50561411 21.90612739 -76.65831923 29.65026578 -87.45361328 39.50170898 C-88.19095703 40.15655273 -88.92830078 40.81139648 -89.68798828 41.48608398 C-102.56308126 53.53717101 -112.30415407 70.75346787 -117.45361328 87.50170898 C-117.73978516 88.42725586 -118.02595703 89.35280273 -118.32080078 90.30639648 C-123.87008716 109.38537157 -123.0961762 131.30525116 -118.45361328 150.50170898 C-118.24865234 151.38987305 -118.04369141 152.27803711 -117.83251953 153.19311523 C-110.31742549 181.5264201 -90.36213377 205.50688834 -65.38110352 220.3059082 C-48.75506593 229.72993205 -31.62847196 234.65288331 -12.53970337 234.64888 C-11.58170094 234.65255669 -10.62369851 234.65623338 -9.6366657 234.66002148 C-6.4475502 234.67097659 -3.25846737 234.6748882 -0.06933594 234.67871094 C2.22625836 234.68498185 4.52185165 234.6916292 6.81744385 234.69862366 C14.33906354 234.71959476 21.86068328 234.73002072 29.38232422 234.73999023 C31.98001745 234.74404063 34.57771057 234.74815763 37.17540359 234.75234032 C47.98789136 234.76919973 58.80037623 234.78383322 69.61287498 234.79108906 C72.41248959 234.79299852 75.21210418 234.79491891 78.01171875 234.796875 C78.70743042 234.79735874 79.4031421 234.79784248 80.11993594 234.79834088 C91.37126821 234.8066281 102.62249373 234.83194729 113.87377946 234.86445568 C125.4601773 234.89765579 137.0465156 234.91521762 148.63296092 234.9187333 C155.12416713 234.92107429 161.61520437 234.92991047 168.1063652 234.95519447 C174.22140531 234.97862968 180.33616701 234.98264671 186.45124054 234.97243309 C188.68150641 234.97194134 190.91178672 234.97815385 193.14200974 234.99198914 C222.16009992 235.16176722 250.39118739 228.31467753 272.54638672 208.50170898 C273.36236328 207.81592773 274.17833984 207.13014648 275.01904297 206.42358398 C290.63373175 193.00508791 300.63913972 176.66374905 307.54638672 157.50170898 C307.86349609 156.68186523 308.18060547 155.86202148 308.50732422 155.01733398 C317.99125759 129.28864346 313.7415159 96.996858 302.54638672 72.50170898 C287.73670662 42.2026459 262.40994917 22.88757424 231.10107422 11.90405273 C222.85511671 9.25515448 214.9363825 8.20466099 206.29548645 8.24101257 C205.31338957 8.23718703 204.33129269 8.23336148 203.3194353 8.22942001 C200.05494216 8.21916754 196.79062746 8.22306739 193.52612305 8.22705078 C191.17463011 8.22269994 188.8231386 8.21751555 186.47164917 8.21156311 C180.10158658 8.19819997 173.73158343 8.19759161 167.36150956 8.20012641 C161.35878794 8.20133405 155.35607454 8.19511112 149.3533562 8.18969295 C136.73378331 8.17883315 124.11423718 8.18097213 111.49466278 8.1870778 C99.97881478 8.19224194 88.4630515 8.18100202 76.94722024 8.16197958 C65.09412317 8.14255175 53.24106607 8.13435405 41.38795298 8.13810283 C34.74491137 8.14000786 28.1019327 8.13732749 21.45890236 8.12338829 C15.20681654 8.11075995 8.95489941 8.11280135 2.70281601 8.12579918 C0.41766362 8.12815386 -1.86750083 8.12547039 -4.15263939 8.11717606 C-20.09304999 8.06352287 -34.55318554 8.89545086 -49.45361328 15.12670898 Z " fill="#0E0D0D" transform="translate(154.45361328125,128.498291015625)"/>
</svg>
